<mxfile host="app.diagrams.net" agent="Mozilla/5.0 (Windows NT 10.0; Win64; x64) AppleWebKit/537.36 (KHTML, like Gecko) Chrome/133.0.0.0 Safari/537.36" version="26.0.16">
  <diagram name="Page-1" id="TksuoGWnSPnkqVFUxa55">
    <mxGraphModel dx="2261" dy="738" grid="1" gridSize="10" guides="1" tooltips="1" connect="1" arrows="1" fold="1" page="1" pageScale="1" pageWidth="827" pageHeight="1169" math="0" shadow="0">
      <root>
        <mxCell id="0" />
        <mxCell id="1" parent="0" />
        <mxCell id="m1aVc9m82LFshHKvYNeb-1" value="&lt;span style=&quot;white-space: pre;&quot;&gt;&#x9;&lt;/span&gt;&lt;span style=&quot;white-space: pre;&quot;&gt;&#x9;&lt;/span&gt;&lt;span style=&quot;white-space: pre;&quot;&gt;&#x9;&lt;/span&gt;&lt;span style=&quot;white-space: pre;&quot;&gt;&#x9;&lt;/span&gt;&lt;span style=&quot;white-space: pre;&quot;&gt;&#x9;&lt;/span&gt;&lt;span style=&quot;white-space: pre;&quot;&gt;&#x9;&lt;/span&gt;&lt;span style=&quot;white-space: pre;&quot;&gt;&#x9;&lt;/span&gt;&lt;span style=&quot;white-space: pre;&quot;&gt;&#x9;&lt;/span&gt;IGantryDisplayBackendMonitor&lt;br&gt;&lt;b&gt;MI.GantryDisplay::GantryDisplayBackendMonitor&lt;/b&gt;" style="swimlane;fontStyle=0;childLayout=stackLayout;horizontal=1;startSize=40;fillColor=#ffe6cc;horizontalStack=0;resizeParent=1;resizeParentMax=0;resizeLast=0;collapsible=1;marginBottom=0;whiteSpace=wrap;html=1;strokeColor=#d79b00;" parent="1" vertex="1">
          <mxGeometry x="15" y="20" width="390" height="144" as="geometry">
            <mxRectangle x="330" y="180" width="300" height="40" as="alternateBounds" />
          </mxGeometry>
        </mxCell>
        <mxCell id="m1aVc9m82LFshHKvYNeb-2" value="- &lt;u&gt;myGantryDisplayBackend:IGantryDisplayBackend&lt;/u&gt;" style="text;strokeColor=#d79b00;fillColor=#ffe6cc;align=left;verticalAlign=top;spacingLeft=4;spacingRight=4;overflow=hidden;rotatable=0;points=[[0,0.5],[1,0.5]];portConstraint=eastwest;whiteSpace=wrap;html=1;" parent="m1aVc9m82LFshHKvYNeb-1" vertex="1">
          <mxGeometry y="40" width="390" height="26" as="geometry" />
        </mxCell>
        <mxCell id="m1aVc9m82LFshHKvYNeb-3" value="- &lt;u&gt;myGantryDisplayState:IGantryDisplayState&lt;/u&gt;" style="text;strokeColor=#d79b00;fillColor=#ffe6cc;align=left;verticalAlign=top;spacingLeft=4;spacingRight=4;overflow=hidden;rotatable=0;points=[[0,0.5],[1,0.5]];portConstraint=eastwest;whiteSpace=wrap;html=1;" parent="m1aVc9m82LFshHKvYNeb-1" vertex="1">
          <mxGeometry y="66" width="390" height="26" as="geometry" />
        </mxCell>
        <mxCell id="m1aVc9m82LFshHKvYNeb-4" value="- &lt;u&gt;myGPTpowerController:IGantryDisplayPowerController&lt;/u&gt;" style="text;strokeColor=#d79b00;fillColor=#ffe6cc;align=left;verticalAlign=top;spacingLeft=4;spacingRight=4;overflow=hidden;rotatable=0;points=[[0,0.5],[1,0.5]];portConstraint=eastwest;whiteSpace=wrap;html=1;" parent="m1aVc9m82LFshHKvYNeb-1" vertex="1">
          <mxGeometry y="92" width="390" height="26" as="geometry" />
        </mxCell>
        <mxCell id="_K_-Zk2MpaU-eOK9Bb0K-5" value="" style="endArrow=diamondThin;endFill=1;endSize=24;html=1;rounded=0;" edge="1" parent="m1aVc9m82LFshHKvYNeb-1">
          <mxGeometry width="160" relative="1" as="geometry">
            <mxPoint x="170" y="210.02" as="sourcePoint" />
            <mxPoint x="170" y="150" as="targetPoint" />
          </mxGeometry>
        </mxCell>
        <mxCell id="m1aVc9m82LFshHKvYNeb-5" value="- &lt;u&gt;mySnaCommandHandler:ISnaCommandHandler&lt;/u&gt;&amp;nbsp; &amp;nbsp; &amp;nbsp; &amp;nbsp; &amp;nbsp; &amp;nbsp; &amp;nbsp; &amp;nbsp; &amp;nbsp; &lt;b&gt;&lt;font style=&quot;color: rgb(255, 0, 0);&quot;&gt;A&lt;/font&gt;&lt;/b&gt;" style="text;strokeColor=#d79b00;fillColor=#ffe6cc;align=left;verticalAlign=top;spacingLeft=4;spacingRight=4;overflow=hidden;rotatable=0;points=[[0,0.5],[1,0.5]];portConstraint=eastwest;whiteSpace=wrap;html=1;" parent="m1aVc9m82LFshHKvYNeb-1" vertex="1">
          <mxGeometry y="118" width="390" height="26" as="geometry" />
        </mxCell>
        <mxCell id="StuuOwL_MEqQ0MTykpJd-1" value="MI.GantryDisplay::GantryDisplayBackend" style="swimlane;fontStyle=0;childLayout=stackLayout;horizontal=1;startSize=26;fillColor=#ffe6cc;horizontalStack=0;resizeParent=1;resizeParentMax=0;resizeLast=0;collapsible=1;marginBottom=0;whiteSpace=wrap;html=1;strokeColor=#d79b00;" parent="1" vertex="1">
          <mxGeometry x="-10" y="230" width="440" height="156" as="geometry" />
        </mxCell>
        <mxCell id="StuuOwL_MEqQ0MTykpJd-2" value="- myConsoleDataProvider:IConsoleDataProvider" style="text;strokeColor=#d79b00;fillColor=#ffe6cc;align=left;verticalAlign=top;spacingLeft=4;spacingRight=4;overflow=hidden;rotatable=0;points=[[0,0.5],[1,0.5]];portConstraint=eastwest;whiteSpace=wrap;html=1;" parent="StuuOwL_MEqQ0MTykpJd-1" vertex="1">
          <mxGeometry y="26" width="440" height="26" as="geometry" />
        </mxCell>
        <mxCell id="StuuOwL_MEqQ0MTykpJd-3" value="- myGantryDisplayIqspectController:IGantryDisplayIqspectController" style="text;strokeColor=#d79b00;fillColor=#ffe6cc;align=left;verticalAlign=top;spacingLeft=4;spacingRight=4;overflow=hidden;rotatable=0;points=[[0,0.5],[1,0.5]];portConstraint=eastwest;whiteSpace=wrap;html=1;" parent="StuuOwL_MEqQ0MTykpJd-1" vertex="1">
          <mxGeometry y="52" width="440" height="26" as="geometry" />
        </mxCell>
        <mxCell id="StuuOwL_MEqQ0MTykpJd-4" value="- myGantryDisplayPlanerController:IGantryDisplayPlannerController" style="text;strokeColor=#d79b00;fillColor=#ffe6cc;align=left;verticalAlign=top;spacingLeft=4;spacingRight=4;overflow=hidden;rotatable=0;points=[[0,0.5],[1,0.5]];portConstraint=eastwest;whiteSpace=wrap;html=1;" parent="StuuOwL_MEqQ0MTykpJd-1" vertex="1">
          <mxGeometry y="78" width="440" height="26" as="geometry" />
        </mxCell>
        <mxCell id="_K_-Zk2MpaU-eOK9Bb0K-1" value="- myScreenDataManager:IScreenDataManager" style="text;strokeColor=#d79b00;fillColor=#ffe6cc;align=left;verticalAlign=top;spacingLeft=4;spacingRight=4;overflow=hidden;rotatable=0;points=[[0,0.5],[1,0.5]];portConstraint=eastwest;whiteSpace=wrap;html=1;" vertex="1" parent="StuuOwL_MEqQ0MTykpJd-1">
          <mxGeometry y="104" width="440" height="26" as="geometry" />
        </mxCell>
        <mxCell id="_K_-Zk2MpaU-eOK9Bb0K-2" value="- mySnacCommandHelper:ISnacCommandHelper{readonly}" style="text;strokeColor=#d79b00;fillColor=#ffe6cc;align=left;verticalAlign=top;spacingLeft=4;spacingRight=4;overflow=hidden;rotatable=0;points=[[0,0.5],[1,0.5]];portConstraint=eastwest;whiteSpace=wrap;html=1;" vertex="1" parent="StuuOwL_MEqQ0MTykpJd-1">
          <mxGeometry y="130" width="440" height="26" as="geometry" />
        </mxCell>
        <mxCell id="_K_-Zk2MpaU-eOK9Bb0K-6" value="&lt;span style=&quot;white-space: pre;&quot;&gt;&#x9;&lt;/span&gt;&lt;span style=&quot;white-space: pre;&quot;&gt;&#x9;&lt;/span&gt;&lt;span style=&quot;white-space: pre;&quot;&gt;&#x9;&lt;/span&gt;myGantryDisplayIQspectController&lt;span style=&quot;white-space: pre;&quot;&gt;&#x9;&lt;/span&gt;&lt;span style=&quot;white-space: pre;&quot;&gt;&#x9;&lt;/span&gt;&lt;span style=&quot;white-space: pre;&quot;&gt;&#x9;&lt;/span&gt;&lt;span style=&quot;white-space: pre;&quot;&gt;&#x9;&lt;/span&gt;&lt;span style=&quot;white-space: pre;&quot;&gt;&#x9;&lt;/span&gt;&amp;nbsp; &amp;nbsp; &amp;nbsp; &amp;nbsp; &amp;nbsp; &amp;nbsp; &amp;nbsp; &amp;nbsp; &amp;nbsp;&lt;b&gt; &lt;font style=&quot;font-size: 10px;&quot;&gt;&amp;lt;&amp;lt;interface&amp;gt;&amp;gt;&lt;/font&gt;&lt;span style=&quot;white-space: pre;&quot;&gt;&#x9;&lt;/span&gt;&lt;/b&gt;&lt;span style=&quot;white-space: pre;&quot;&gt;&#x9;&lt;/span&gt;&lt;span style=&quot;white-space: pre;&quot;&gt;&#x9;&lt;/span&gt;&lt;span style=&quot;white-space: pre;&quot;&gt;&#x9;&lt;/span&gt;&lt;span style=&quot;white-space: pre;&quot;&gt;&#x9;&lt;/span&gt;IDisposable&lt;br&gt;&lt;b&gt;MI.GantryDisplay::IGantryDisplayIqspactController&lt;/b&gt;" style="swimlane;fontStyle=0;childLayout=stackLayout;horizontal=1;startSize=40;fillColor=#e1d5e7;horizontalStack=0;resizeParent=1;resizeParentMax=0;resizeLast=0;collapsible=1;marginBottom=0;whiteSpace=wrap;html=1;strokeColor=#9673a6;" vertex="1" parent="1">
          <mxGeometry x="-230" y="470" width="340" height="196" as="geometry">
            <mxRectangle x="330" y="180" width="300" height="40" as="alternateBounds" />
          </mxGeometry>
        </mxCell>
        <mxCell id="_K_-Zk2MpaU-eOK9Bb0K-7" value="+ IqSpectFocusBoxMoved(TargetDetectorPositions):void" style="text;strokeColor=#9673a6;fillColor=#e1d5e7;align=left;verticalAlign=top;spacingLeft=4;spacingRight=4;overflow=hidden;rotatable=0;points=[[0,0.5],[1,0.5]];portConstraint=eastwest;whiteSpace=wrap;html=1;" vertex="1" parent="_K_-Zk2MpaU-eOK9Bb0K-6">
          <mxGeometry y="40" width="340" height="26" as="geometry" />
        </mxCell>
        <mxCell id="_K_-Zk2MpaU-eOK9Bb0K-8" value="+ OnIqspectCompleted(OperationEventArgs):void" style="text;strokeColor=#9673a6;fillColor=#e1d5e7;align=left;verticalAlign=top;spacingLeft=4;spacingRight=4;overflow=hidden;rotatable=0;points=[[0,0.5],[1,0.5]];portConstraint=eastwest;whiteSpace=wrap;html=1;" vertex="1" parent="_K_-Zk2MpaU-eOK9Bb0K-6">
          <mxGeometry y="66" width="340" height="26" as="geometry" />
        </mxCell>
        <mxCell id="_K_-Zk2MpaU-eOK9Bb0K-9" value="+ OnIqspectStarted():void" style="text;strokeColor=#9673a6;fillColor=#e1d5e7;align=left;verticalAlign=top;spacingLeft=4;spacingRight=4;overflow=hidden;rotatable=0;points=[[0,0.5],[1,0.5]];portConstraint=eastwest;whiteSpace=wrap;html=1;" vertex="1" parent="_K_-Zk2MpaU-eOK9Bb0K-6">
          <mxGeometry y="92" width="340" height="26" as="geometry" />
        </mxCell>
        <mxCell id="_K_-Zk2MpaU-eOK9Bb0K-11" value="+ OnIqSpectUpdated(OperationEventArgs):void" style="text;strokeColor=#9673a6;fillColor=#e1d5e7;align=left;verticalAlign=top;spacingLeft=4;spacingRight=4;overflow=hidden;rotatable=0;points=[[0,0.5],[1,0.5]];portConstraint=eastwest;whiteSpace=wrap;html=1;" vertex="1" parent="_K_-Zk2MpaU-eOK9Bb0K-6">
          <mxGeometry y="118" width="340" height="26" as="geometry" />
        </mxCell>
        <mxCell id="_K_-Zk2MpaU-eOK9Bb0K-18" value="+ PerformIqSpectOperation():IqSpectOperationArgs" style="text;strokeColor=#9673a6;fillColor=#e1d5e7;align=left;verticalAlign=top;spacingLeft=4;spacingRight=4;overflow=hidden;rotatable=0;points=[[0,0.5],[1,0.5]];portConstraint=eastwest;whiteSpace=wrap;html=1;" vertex="1" parent="_K_-Zk2MpaU-eOK9Bb0K-6">
          <mxGeometry y="144" width="340" height="26" as="geometry" />
        </mxCell>
        <mxCell id="_K_-Zk2MpaU-eOK9Bb0K-19" value="+ UpdateIqSpectParams(bool):void" style="text;strokeColor=#9673a6;fillColor=#e1d5e7;align=left;verticalAlign=top;spacingLeft=4;spacingRight=4;overflow=hidden;rotatable=0;points=[[0,0.5],[1,0.5]];portConstraint=eastwest;whiteSpace=wrap;html=1;" vertex="1" parent="_K_-Zk2MpaU-eOK9Bb0K-6">
          <mxGeometry y="170" width="340" height="26" as="geometry" />
        </mxCell>
        <mxCell id="_K_-Zk2MpaU-eOK9Bb0K-20" value="&lt;span style=&quot;white-space: pre;&quot;&gt;&#x9;&lt;/span&gt;&lt;span style=&quot;white-space: pre;&quot;&gt;&#x9;&lt;/span&gt;&lt;span style=&quot;white-space: pre;&quot;&gt;&#x9;&lt;/span&gt;myGantryDisplayPlanerController&lt;span style=&quot;white-space: pre;&quot;&gt;&#x9;&lt;/span&gt;&lt;span style=&quot;white-space: pre;&quot;&gt;&#x9;&lt;/span&gt;&lt;span style=&quot;white-space: pre;&quot;&gt;&#x9;&lt;/span&gt;&lt;span style=&quot;white-space: pre;&quot;&gt;&#x9;&lt;/span&gt;&lt;span style=&quot;white-space: pre;&quot;&gt;&#x9;&lt;/span&gt;&amp;nbsp; &amp;nbsp; &amp;nbsp; &amp;nbsp; &amp;nbsp; &amp;nbsp; &amp;nbsp; &amp;nbsp; &amp;nbsp;&lt;b&gt; &lt;font style=&quot;font-size: 10px;&quot;&gt;&amp;lt;&amp;lt;interface&amp;gt;&amp;gt;&lt;/font&gt;&lt;/b&gt;&lt;span style=&quot;white-space: pre;&quot;&gt;&#x9;&lt;/span&gt;&lt;span style=&quot;white-space: pre;&quot;&gt;&#x9;&lt;/span&gt;&lt;span style=&quot;white-space: pre;&quot;&gt;&#x9;&lt;/span&gt;&lt;span style=&quot;white-space: pre;&quot;&gt;&#x9;&lt;/span&gt;&lt;span style=&quot;white-space: pre;&quot;&gt;&#x9;&lt;/span&gt;&lt;br&gt;&lt;b&gt;MI.GantryDisplay::IGantryDisplayPlanarController&lt;/b&gt;" style="swimlane;fontStyle=0;childLayout=stackLayout;horizontal=1;startSize=40;fillColor=#e1d5e7;horizontalStack=0;resizeParent=1;resizeParentMax=0;resizeLast=0;collapsible=1;marginBottom=0;whiteSpace=wrap;html=1;strokeColor=#9673a6;" vertex="1" parent="1">
          <mxGeometry x="340" y="473" width="380" height="170" as="geometry">
            <mxRectangle x="330" y="180" width="300" height="40" as="alternateBounds" />
          </mxGeometry>
        </mxCell>
        <mxCell id="_K_-Zk2MpaU-eOK9Bb0K-21" value="+ ApplyOffsetZoom(ProtocolParametersOperationsEventArgs):void" style="text;strokeColor=#9673a6;fillColor=#e1d5e7;align=left;verticalAlign=top;spacingLeft=4;spacingRight=4;overflow=hidden;rotatable=0;points=[[0,0.5],[1,0.5]];portConstraint=eastwest;whiteSpace=wrap;html=1;" vertex="1" parent="_K_-Zk2MpaU-eOK9Bb0K-20">
          <mxGeometry y="40" width="380" height="26" as="geometry" />
        </mxCell>
        <mxCell id="_K_-Zk2MpaU-eOK9Bb0K-22" value="+ ApplyPlanarOffset(TargetDetectorpositions):void" style="text;strokeColor=#9673a6;fillColor=#e1d5e7;align=left;verticalAlign=top;spacingLeft=4;spacingRight=4;overflow=hidden;rotatable=0;points=[[0,0.5],[1,0.5]];portConstraint=eastwest;whiteSpace=wrap;html=1;" vertex="1" parent="_K_-Zk2MpaU-eOK9Bb0K-20">
          <mxGeometry y="66" width="380" height="26" as="geometry" />
        </mxCell>
        <mxCell id="_K_-Zk2MpaU-eOK9Bb0K-23" value="+ ApplyZoomFactorForPscopeImages(string):void" style="text;strokeColor=#9673a6;fillColor=#e1d5e7;align=left;verticalAlign=top;spacingLeft=4;spacingRight=4;overflow=hidden;rotatable=0;points=[[0,0.5],[1,0.5]];portConstraint=eastwest;whiteSpace=wrap;html=1;" vertex="1" parent="_K_-Zk2MpaU-eOK9Bb0K-20">
          <mxGeometry y="92" width="380" height="26" as="geometry" />
        </mxCell>
        <mxCell id="_K_-Zk2MpaU-eOK9Bb0K-24" value="+ CancelPlanarOffset():void" style="text;strokeColor=#9673a6;fillColor=#e1d5e7;align=left;verticalAlign=top;spacingLeft=4;spacingRight=4;overflow=hidden;rotatable=0;points=[[0,0.5],[1,0.5]];portConstraint=eastwest;whiteSpace=wrap;html=1;" vertex="1" parent="_K_-Zk2MpaU-eOK9Bb0K-20">
          <mxGeometry y="118" width="380" height="26" as="geometry" />
        </mxCell>
        <mxCell id="_K_-Zk2MpaU-eOK9Bb0K-25" value="+ EnableOffsetPlanning():void" style="text;strokeColor=#9673a6;fillColor=#e1d5e7;align=left;verticalAlign=top;spacingLeft=4;spacingRight=4;overflow=hidden;rotatable=0;points=[[0,0.5],[1,0.5]];portConstraint=eastwest;whiteSpace=wrap;html=1;" vertex="1" parent="_K_-Zk2MpaU-eOK9Bb0K-20">
          <mxGeometry y="144" width="380" height="26" as="geometry" />
        </mxCell>
        <mxCell id="_K_-Zk2MpaU-eOK9Bb0K-27" value="" style="endArrow=open;endFill=1;endSize=12;html=1;rounded=0;entryX=0.521;entryY=-0.005;entryDx=0;entryDy=0;entryPerimeter=0;" edge="1" parent="1">
          <mxGeometry width="160" relative="1" as="geometry">
            <mxPoint x="370" y="386" as="sourcePoint" />
            <mxPoint x="527.1399999999999" y="468.02" as="targetPoint" />
          </mxGeometry>
        </mxCell>
        <mxCell id="_K_-Zk2MpaU-eOK9Bb0K-28" value="" style="endArrow=open;endFill=1;endSize=12;html=1;rounded=0;entryX=0.459;entryY=0.005;entryDx=0;entryDy=0;entryPerimeter=0;" edge="1" parent="1">
          <mxGeometry width="160" relative="1" as="geometry">
            <mxPoint x="53.94" y="385.02" as="sourcePoint" />
            <mxPoint x="-60.00000000000006" y="470" as="targetPoint" />
          </mxGeometry>
        </mxCell>
        <mxCell id="_K_-Zk2MpaU-eOK9Bb0K-30" value="MI.GantryDisplay::GantryDisplayBasePlanning" style="swimlane;fontStyle=0;childLayout=stackLayout;horizontal=1;startSize=26;fillColor=#ffe6cc;horizontalStack=0;resizeParent=1;resizeParentMax=0;resizeLast=0;collapsible=1;marginBottom=0;whiteSpace=wrap;html=1;strokeColor=#d79b00;" vertex="1" parent="1">
          <mxGeometry x="15" y="690" width="440" height="220" as="geometry" />
        </mxCell>
        <mxCell id="_K_-Zk2MpaU-eOK9Bb0K-31" value="#&amp;nbsp; Initialize():void&lt;div&gt;&lt;span style=&quot;white-space: pre;&quot;&gt;&#x9;&lt;/span&gt;&lt;span style=&quot;font-size: 10px; text-align: center; background-color: transparent; color: light-dark(rgb(0, 0, 0), rgb(255, 255, 255));&quot;&gt;&amp;lt;&amp;lt;property&amp;gt;&amp;gt;&lt;/span&gt;&lt;br&gt;&lt;/div&gt;" style="text;strokeColor=#d79b00;fillColor=#ffe6cc;align=left;verticalAlign=top;spacingLeft=4;spacingRight=4;overflow=hidden;rotatable=0;points=[[0,0.5],[1,0.5]];portConstraint=eastwest;whiteSpace=wrap;html=1;" vertex="1" parent="_K_-Zk2MpaU-eOK9Bb0K-30">
          <mxGeometry y="26" width="440" height="44" as="geometry" />
        </mxCell>
        <mxCell id="_K_-Zk2MpaU-eOK9Bb0K-32" value="# ConsoleDataProvider(): IConsoleDataProvider" style="text;strokeColor=#d79b00;fillColor=#ffe6cc;align=left;verticalAlign=top;spacingLeft=4;spacingRight=4;overflow=hidden;rotatable=0;points=[[0,0.5],[1,0.5]];portConstraint=eastwest;whiteSpace=wrap;html=1;" vertex="1" parent="_K_-Zk2MpaU-eOK9Bb0K-30">
          <mxGeometry y="70" width="440" height="20" as="geometry" />
        </mxCell>
        <mxCell id="_K_-Zk2MpaU-eOK9Bb0K-33" value="# ImageReorentor():ImageReorientor" style="text;strokeColor=#d79b00;fillColor=#ffe6cc;align=left;verticalAlign=top;spacingLeft=4;spacingRight=4;overflow=hidden;rotatable=0;points=[[0,0.5],[1,0.5]];portConstraint=eastwest;whiteSpace=wrap;html=1;" vertex="1" parent="_K_-Zk2MpaU-eOK9Bb0K-30">
          <mxGeometry y="90" width="440" height="26" as="geometry" />
        </mxCell>
        <mxCell id="_K_-Zk2MpaU-eOK9Bb0K-34" value="# IqSpectExecutionControls():IIQspectExecutionControls" style="text;strokeColor=#d79b00;fillColor=#ffe6cc;align=left;verticalAlign=top;spacingLeft=4;spacingRight=4;overflow=hidden;rotatable=0;points=[[0,0.5],[1,0.5]];portConstraint=eastwest;whiteSpace=wrap;html=1;" vertex="1" parent="_K_-Zk2MpaU-eOK9Bb0K-30">
          <mxGeometry y="116" width="440" height="26" as="geometry" />
        </mxCell>
        <mxCell id="_K_-Zk2MpaU-eOK9Bb0K-35" value="# ScreenDataManager():IScreenDataManager" style="text;strokeColor=#d79b00;fillColor=#ffe6cc;align=left;verticalAlign=top;spacingLeft=4;spacingRight=4;overflow=hidden;rotatable=0;points=[[0,0.5],[1,0.5]];portConstraint=eastwest;whiteSpace=wrap;html=1;" vertex="1" parent="_K_-Zk2MpaU-eOK9Bb0K-30">
          <mxGeometry y="142" width="440" height="26" as="geometry" />
        </mxCell>
        <mxCell id="_K_-Zk2MpaU-eOK9Bb0K-38" value="# SnacCommandHandler():ISnacCommandHandler" style="text;strokeColor=#d79b00;fillColor=#ffe6cc;align=left;verticalAlign=top;spacingLeft=4;spacingRight=4;overflow=hidden;rotatable=0;points=[[0,0.5],[1,0.5]];portConstraint=eastwest;whiteSpace=wrap;html=1;" vertex="1" parent="_K_-Zk2MpaU-eOK9Bb0K-30">
          <mxGeometry y="168" width="440" height="26" as="geometry" />
        </mxCell>
        <mxCell id="_K_-Zk2MpaU-eOK9Bb0K-39" value="# SnacEventListener():ISnacEventListener" style="text;strokeColor=#d79b00;fillColor=#ffe6cc;align=left;verticalAlign=top;spacingLeft=4;spacingRight=4;overflow=hidden;rotatable=0;points=[[0,0.5],[1,0.5]];portConstraint=eastwest;whiteSpace=wrap;html=1;" vertex="1" parent="_K_-Zk2MpaU-eOK9Bb0K-30">
          <mxGeometry y="194" width="440" height="26" as="geometry" />
        </mxCell>
        <mxCell id="_K_-Zk2MpaU-eOK9Bb0K-41" value="&lt;span style=&quot;white-space: pre;&quot;&gt;&#x9;&lt;/span&gt;&lt;span style=&quot;white-space: pre;&quot;&gt;&#x9;&lt;/span&gt;&lt;span style=&quot;white-space: pre;&quot;&gt;&#x9;&lt;/span&gt;&lt;span style=&quot;white-space: pre;&quot;&gt;&#x9;&lt;/span&gt;&lt;span style=&quot;white-space: pre;&quot;&gt;&#x9;&lt;/span&gt;&lt;span style=&quot;white-space: pre;&quot;&gt;&#x9;&lt;/span&gt;&lt;span style=&quot;white-space: pre;&quot;&gt;&#x9;&lt;/span&gt;&lt;span style=&quot;white-space: pre;&quot;&gt;&#x9;&lt;/span&gt;&lt;br&gt;&lt;b&gt;MI.GantryDisplay::GantryDisplayPlanarController&lt;/b&gt;" style="swimlane;fontStyle=0;childLayout=stackLayout;horizontal=1;startSize=40;fillColor=#ffe6cc;horizontalStack=0;resizeParent=1;resizeParentMax=0;resizeLast=0;collapsible=1;marginBottom=0;whiteSpace=wrap;html=1;strokeColor=#d79b00;" vertex="1" parent="1">
          <mxGeometry x="378" y="930" width="380" height="170" as="geometry">
            <mxRectangle x="330" y="180" width="300" height="40" as="alternateBounds" />
          </mxGeometry>
        </mxCell>
        <mxCell id="_K_-Zk2MpaU-eOK9Bb0K-42" value="+ ApplyOffsetZoom(ProtocolParametersOperationsEventArgs):void" style="text;strokeColor=#d79b00;fillColor=#ffe6cc;align=left;verticalAlign=top;spacingLeft=4;spacingRight=4;overflow=hidden;rotatable=0;points=[[0,0.5],[1,0.5]];portConstraint=eastwest;whiteSpace=wrap;html=1;" vertex="1" parent="_K_-Zk2MpaU-eOK9Bb0K-41">
          <mxGeometry y="40" width="380" height="26" as="geometry" />
        </mxCell>
        <mxCell id="_K_-Zk2MpaU-eOK9Bb0K-43" value="+ ApplyPlanarOffset(TargetDetectorpositions):void" style="text;strokeColor=#d79b00;fillColor=#ffe6cc;align=left;verticalAlign=top;spacingLeft=4;spacingRight=4;overflow=hidden;rotatable=0;points=[[0,0.5],[1,0.5]];portConstraint=eastwest;whiteSpace=wrap;html=1;" vertex="1" parent="_K_-Zk2MpaU-eOK9Bb0K-41">
          <mxGeometry y="66" width="380" height="26" as="geometry" />
        </mxCell>
        <mxCell id="_K_-Zk2MpaU-eOK9Bb0K-44" value="+ ApplyZoomFactorForPscopeImages(string):void" style="text;strokeColor=#d79b00;fillColor=#ffe6cc;align=left;verticalAlign=top;spacingLeft=4;spacingRight=4;overflow=hidden;rotatable=0;points=[[0,0.5],[1,0.5]];portConstraint=eastwest;whiteSpace=wrap;html=1;" vertex="1" parent="_K_-Zk2MpaU-eOK9Bb0K-41">
          <mxGeometry y="92" width="380" height="26" as="geometry" />
        </mxCell>
        <mxCell id="_K_-Zk2MpaU-eOK9Bb0K-45" value="+ CancelPlanarOffset():void" style="text;strokeColor=#d79b00;fillColor=#ffe6cc;align=left;verticalAlign=top;spacingLeft=4;spacingRight=4;overflow=hidden;rotatable=0;points=[[0,0.5],[1,0.5]];portConstraint=eastwest;whiteSpace=wrap;html=1;" vertex="1" parent="_K_-Zk2MpaU-eOK9Bb0K-41">
          <mxGeometry y="118" width="380" height="26" as="geometry" />
        </mxCell>
        <mxCell id="_K_-Zk2MpaU-eOK9Bb0K-46" value="+ EnableOffsetPlanning():void" style="text;strokeColor=#d79b00;fillColor=#ffe6cc;align=left;verticalAlign=top;spacingLeft=4;spacingRight=4;overflow=hidden;rotatable=0;points=[[0,0.5],[1,0.5]];portConstraint=eastwest;whiteSpace=wrap;html=1;" vertex="1" parent="_K_-Zk2MpaU-eOK9Bb0K-41">
          <mxGeometry y="144" width="380" height="26" as="geometry" />
        </mxCell>
        <mxCell id="_K_-Zk2MpaU-eOK9Bb0K-47" value="&lt;span style=&quot;white-space: pre;&quot;&gt;&#x9;&lt;/span&gt;&lt;span style=&quot;white-space: pre;&quot;&gt;&#x9;&lt;/span&gt;&lt;span style=&quot;white-space: pre;&quot;&gt;&#x9;&lt;/span&gt;&lt;span style=&quot;white-space: pre;&quot;&gt;&#x9;&lt;/span&gt;&lt;span style=&quot;white-space: pre;&quot;&gt;&#x9;&lt;/span&gt;&lt;span style=&quot;white-space: pre;&quot;&gt;&#x9;&lt;/span&gt;&lt;span style=&quot;white-space: pre;&quot;&gt;&#x9;&lt;/span&gt;&lt;span style=&quot;white-space: pre;&quot;&gt;&#x9;&lt;/span&gt;&lt;br&gt;&lt;b&gt;MI.GantryDisplay::GantryDisplayIqspectController&lt;/b&gt;" style="swimlane;fontStyle=0;childLayout=stackLayout;horizontal=1;startSize=40;fillColor=#ffe6cc;horizontalStack=0;resizeParent=1;resizeParentMax=0;resizeLast=0;collapsible=1;marginBottom=0;whiteSpace=wrap;html=1;strokeColor=#d79b00;" vertex="1" parent="1">
          <mxGeometry x="-290" y="930" width="380" height="196" as="geometry">
            <mxRectangle x="330" y="180" width="300" height="40" as="alternateBounds" />
          </mxGeometry>
        </mxCell>
        <mxCell id="_K_-Zk2MpaU-eOK9Bb0K-48" value="+ IqspectFocusBoxMoved(TargetDetectorPositions):void" style="text;strokeColor=#d79b00;fillColor=#ffe6cc;align=left;verticalAlign=top;spacingLeft=4;spacingRight=4;overflow=hidden;rotatable=0;points=[[0,0.5],[1,0.5]];portConstraint=eastwest;whiteSpace=wrap;html=1;" vertex="1" parent="_K_-Zk2MpaU-eOK9Bb0K-47">
          <mxGeometry y="40" width="380" height="26" as="geometry" />
        </mxCell>
        <mxCell id="_K_-Zk2MpaU-eOK9Bb0K-49" value="+ OnIqSpectCompleted(OperationEventArgs):void" style="text;strokeColor=#d79b00;fillColor=#ffe6cc;align=left;verticalAlign=top;spacingLeft=4;spacingRight=4;overflow=hidden;rotatable=0;points=[[0,0.5],[1,0.5]];portConstraint=eastwest;whiteSpace=wrap;html=1;" vertex="1" parent="_K_-Zk2MpaU-eOK9Bb0K-47">
          <mxGeometry y="66" width="380" height="26" as="geometry" />
        </mxCell>
        <mxCell id="_K_-Zk2MpaU-eOK9Bb0K-50" value="+ OnIqSpectStarted():void" style="text;strokeColor=#d79b00;fillColor=#ffe6cc;align=left;verticalAlign=top;spacingLeft=4;spacingRight=4;overflow=hidden;rotatable=0;points=[[0,0.5],[1,0.5]];portConstraint=eastwest;whiteSpace=wrap;html=1;" vertex="1" parent="_K_-Zk2MpaU-eOK9Bb0K-47">
          <mxGeometry y="92" width="380" height="26" as="geometry" />
        </mxCell>
        <mxCell id="_K_-Zk2MpaU-eOK9Bb0K-51" value="+ OnIqSpectUpdated(OperationEventArgs):void" style="text;strokeColor=#d79b00;fillColor=#ffe6cc;align=left;verticalAlign=top;spacingLeft=4;spacingRight=4;overflow=hidden;rotatable=0;points=[[0,0.5],[1,0.5]];portConstraint=eastwest;whiteSpace=wrap;html=1;" vertex="1" parent="_K_-Zk2MpaU-eOK9Bb0K-47">
          <mxGeometry y="118" width="380" height="26" as="geometry" />
        </mxCell>
        <mxCell id="_K_-Zk2MpaU-eOK9Bb0K-52" value="+ PerformIqSpectOperation():IqSpectOperationArgs" style="text;strokeColor=#d79b00;fillColor=#ffe6cc;align=left;verticalAlign=top;spacingLeft=4;spacingRight=4;overflow=hidden;rotatable=0;points=[[0,0.5],[1,0.5]];portConstraint=eastwest;whiteSpace=wrap;html=1;" vertex="1" parent="_K_-Zk2MpaU-eOK9Bb0K-47">
          <mxGeometry y="144" width="380" height="26" as="geometry" />
        </mxCell>
        <mxCell id="_K_-Zk2MpaU-eOK9Bb0K-53" value="+ UpdateIqSpectParams(bool):void&lt;span style=&quot;white-space: pre;&quot;&gt;&#x9;&lt;/span&gt;&lt;span style=&quot;white-space: pre;&quot;&gt;&#x9;&lt;/span&gt;&lt;span style=&quot;white-space: pre;&quot;&gt;&#x9;&lt;/span&gt;&lt;span style=&quot;white-space: pre;&quot;&gt;&#x9;&lt;/span&gt;&lt;span style=&quot;white-space: pre;&quot;&gt;&#x9;&lt;/span&gt;&lt;b&gt;&lt;font style=&quot;color: rgb(255, 0, 0);&quot;&gt;A&lt;/font&gt;&lt;/b&gt;&lt;span style=&quot;white-space: pre;&quot;&gt;&#x9;&lt;/span&gt;" style="text;strokeColor=#d79b00;fillColor=#ffe6cc;align=left;verticalAlign=top;spacingLeft=4;spacingRight=4;overflow=hidden;rotatable=0;points=[[0,0.5],[1,0.5]];portConstraint=eastwest;whiteSpace=wrap;html=1;" vertex="1" parent="_K_-Zk2MpaU-eOK9Bb0K-47">
          <mxGeometry y="170" width="380" height="26" as="geometry" />
        </mxCell>
        <mxCell id="_K_-Zk2MpaU-eOK9Bb0K-54" value="MI.Core.Impl::ImageReorientor" style="html=1;whiteSpace=wrap;fillColor=#ffe6cc;strokeColor=#d79b00;" vertex="1" parent="1">
          <mxGeometry x="110" y="1003" width="250" height="50" as="geometry" />
        </mxCell>
        <mxCell id="_K_-Zk2MpaU-eOK9Bb0K-55" value="&lt;b&gt;&amp;nbsp;&lt;font style=&quot;font-size: 10px;&quot;&gt;&amp;lt;&amp;lt;interface&amp;gt;&amp;gt;&lt;br&gt;&lt;/font&gt;&lt;/b&gt;MI.GantryDisplay:: IIqSpectExecutionControls" style="html=1;whiteSpace=wrap;fillColor=#e1d5e7;strokeColor=#9673a6;" vertex="1" parent="1">
          <mxGeometry x="110" y="1190" width="180" height="100" as="geometry" />
        </mxCell>
        <mxCell id="_K_-Zk2MpaU-eOK9Bb0K-56" value="MI.GantryDisplay:: IqSpectExecutionControls" style="html=1;whiteSpace=wrap;fillColor=#ffe6cc;strokeColor=#d79b00;" vertex="1" parent="1">
          <mxGeometry x="-225" y="1180" width="185" height="100" as="geometry" />
        </mxCell>
        <mxCell id="_K_-Zk2MpaU-eOK9Bb0K-57" value="" style="endArrow=diamondThin;endFill=1;endSize=24;html=1;rounded=0;" edge="1" parent="1">
          <mxGeometry width="160" relative="1" as="geometry">
            <mxPoint x="210" y="1000" as="sourcePoint" />
            <mxPoint x="209.5" y="910" as="targetPoint" />
          </mxGeometry>
        </mxCell>
        <mxCell id="_K_-Zk2MpaU-eOK9Bb0K-58" value="" style="endArrow=diamondThin;endFill=1;endSize=24;html=1;rounded=0;exitX=0.5;exitY=0;exitDx=0;exitDy=0;" edge="1" parent="1" source="_K_-Zk2MpaU-eOK9Bb0K-56">
          <mxGeometry width="160" relative="1" as="geometry">
            <mxPoint x="-133" y="1170" as="sourcePoint" />
            <mxPoint x="-133" y="1126" as="targetPoint" />
          </mxGeometry>
        </mxCell>
        <mxCell id="_K_-Zk2MpaU-eOK9Bb0K-62" value="" style="endArrow=block;dashed=1;endFill=0;endSize=12;html=1;rounded=0;" edge="1" parent="1">
          <mxGeometry width="160" relative="1" as="geometry">
            <mxPoint x="609" y="930" as="sourcePoint" />
            <mxPoint x="609" y="643" as="targetPoint" />
          </mxGeometry>
        </mxCell>
        <mxCell id="_K_-Zk2MpaU-eOK9Bb0K-64" value="" style="endArrow=block;dashed=1;endFill=0;endSize=12;html=1;rounded=0;" edge="1" parent="1">
          <mxGeometry width="160" relative="1" as="geometry">
            <mxPoint x="-40" y="1230" as="sourcePoint" />
            <mxPoint x="110" y="1229.5" as="targetPoint" />
            <Array as="points">
              <mxPoint x="30" y="1230" />
            </Array>
          </mxGeometry>
        </mxCell>
        <mxCell id="_K_-Zk2MpaU-eOK9Bb0K-66" value="" style="endArrow=block;dashed=1;endFill=0;endSize=12;html=1;rounded=0;exitX=0.366;exitY=-0.015;exitDx=0;exitDy=0;exitPerimeter=0;" edge="1" parent="1" source="_K_-Zk2MpaU-eOK9Bb0K-47">
          <mxGeometry width="160" relative="1" as="geometry">
            <mxPoint x="-150" y="920" as="sourcePoint" />
            <mxPoint x="-150" y="666" as="targetPoint" />
          </mxGeometry>
        </mxCell>
        <mxCell id="_K_-Zk2MpaU-eOK9Bb0K-67" value="Extends" style="endArrow=block;endSize=16;endFill=0;html=1;rounded=0;entryX=1;entryY=0.5;entryDx=0;entryDy=0;" edge="1" parent="1" target="_K_-Zk2MpaU-eOK9Bb0K-33">
          <mxGeometry width="160" relative="1" as="geometry">
            <mxPoint x="540" y="930" as="sourcePoint" />
            <mxPoint x="540" y="780" as="targetPoint" />
            <Array as="points">
              <mxPoint x="540" y="793" />
            </Array>
            <mxPoint as="offset" />
          </mxGeometry>
        </mxCell>
        <mxCell id="_K_-Zk2MpaU-eOK9Bb0K-68" value="Extends" style="endArrow=block;endSize=16;endFill=0;html=1;rounded=0;entryX=0;entryY=0.5;entryDx=0;entryDy=0;" edge="1" parent="1" target="_K_-Zk2MpaU-eOK9Bb0K-33">
          <mxGeometry width="160" relative="1" as="geometry">
            <mxPoint x="-75" y="930" as="sourcePoint" />
            <mxPoint x="-160" y="793" as="targetPoint" />
            <Array as="points">
              <mxPoint x="-75" y="793" />
            </Array>
            <mxPoint as="offset" />
          </mxGeometry>
        </mxCell>
      </root>
    </mxGraphModel>
  </diagram>
</mxfile>
